# AST/ASF file generated using VICON BodyLanguage
# -----------------------------------------------
:version 1.10
:name VICON
:units
  mass 1.0
  length 0.45
  angle deg
:documentation
   .ast/.asf automatically generated from VICON data using
   VICON BodyBuilder and BodyLanguage model FoxedUp or BRILLIANT.MOD
:root
   order TX TY TZ RX RY RZ
   axis XYZ
   position 0 0 0  
   orientation 0 0 0 
:bonedata
  begin
     id 1 
     name lhipjoint
     direction 0.606768 -0.715223 0.346827 
     length 2.41543 
     axis 0 0 0  XYZ
  end
  begin
     id 2 
     name lfemur
     direction 0.34202 -0.939693 0  
     length 7.2778  
     axis 0 0 20  XYZ
    dof rx ry rz
    limits (-160.0 20.0)
           (-70.0 70.0)
           (-60.0 70.0)
  end
  begin
     id 3 
     name ltibia
     direction 0.34202 -0.939693 0   
     length 7.61811   
     axis 0 0 20   XYZ
    dof rx
    limits (-10.0 170.0)
  end
  begin
     id 4 
     name lfoot
     direction 0.0823924 -0.226371 0.97055   
     length 2.33618   
     axis -90 7.62852e-016 20   XYZ
    dof rx rz
    limits (-45.0 90.0)
           (-70.0 20.0)
  end
  begin
     id 5 
     name ltoes
     direction 1.53554e-011 -4.21934e-011 1   
     length 1.17015   
     axis -90 7.62852e-016 20   XYZ
    dof rx
    limits (-90.0 20.0)
  end
  begin
     id 6 
     name rhipjoint
     direction -0.6077 -0.714582 0.346516   
     length 2.4176  
     axis 0 0 0  XYZ 
  end
  begin
     id 7 
     name rfemur
     direction -0.34202 -0.939693 0   
     length 7.28127   
     axis 0 0 -20   XYZ
    dof rx ry rz
    limits (-160.0 20.0)
           (-70.0 70.0)
           (-70.0 60.0)
  end
  begin
     id 8 
     name rtibia
     direction -0.34202 -0.939693 0   
     length 7.77648   
     axis 0 0 -20   XYZ
    dof rx
    limits (-10.0 170.0)
 end
 begin
     id 9 
     name rfoot
     direction -0.0809463 -0.222398 0.97159   
     length 2.37533  
     axis -90 -7.62852e-016 -20   XYZ
    dof rx rz
    limits (-45.0 90.0)
           (-20.0 70.0)
  end
  begin
     id 10 
     name rtoes
     direction -1.53568e-011 -4.21714e-011 1   
     length 1.18972   
     axis -90 -7.62852e-016 -20   XYZ
    dof rx
    limits (-90.0 20.0)
  end
  begin
     id 11 
     name lowerback
     direction 0.010968 0.991932 -0.126297   
     length 2.21698   
     axis 0 0 0   XYZ
    dof rx ry rz
    limits (-20.0 45.0)
           (-30.0 30.0)
           (-30.0 30.0)
  end
  begin
     id 12 
     name upperback
     direction 0.0167007 0.997503 -0.0686276   
     length 2.22371   
     axis 0 0 0   XYZ
    dof rx ry rz
    limits (-20.0 45.0)
           (-30.0 30.0)
           (-30.0 30.0)
  end
  begin
     id 13 
     name thorax
     direction 0.0111721 0.999885 -0.0102878   
     length 2.25242   
     axis 0 0 0   XYZ
    dof rx ry rz
    limits (-20.0 45.0)
           (-30.0 30.0)
           (-30.0 30.0)
  end
  begin
     id 14 
     name lowerneck
     direction -0.0120265 0.990428 0.137508   
     length 1.57674   
     axis 0 0 0   XYZ
    dof rx ry rz
    limits (-20.0 45.0)
           (-30.0 30.0)
           (-30.0 30.0)
  end
  begin
     id 15 
     name upperneck
     direction 0.0175669 0.998907 0.0433089   
     length 1.5618   
     axis 0 0 0   XYZ
    dof rx ry rz
    limits (-20.0 45.0)
           (-30.0 30.0)
           (-30.0 30.0)
  end
  begin
     id 16
     name head
     direction 0.00754609 0.99997 0.00185367  
     length 1.60579  
     axis 0 0 0   XYZ
    dof rx ry rz
    limits (-20.0 45.0)
           (-30.0 30.0)
           (-30.0 30.0)
  end
  begin
     id 17 
     name lclavicle
     direction 0.885866 0.429166 -0.176231  
     length 3.44967  
     axis 0 0 0   XYZ
    dof ry rz
    limits (-20.0 10.0)
           (0.0 20.0)
  end
  begin
     id 18 
     name lhumerus
     direction 1 -4.48973e-011 -1.90255e-027   
     length 5.20607   
     axis 180 -30 -90   XYZ
    dof rx ry rz
    limits (-60.0 90.0)
           (-90.0 90.0)
           (-90.0 90.0)
  end
  begin
     id 19
     name lradius
     direction 1 -4.48956e-011 9.87925e-027   
     length 3.39961   
     axis 180 -30 -90   XYZ
    dof rx
    limits (-10.0 170.0)
  end
  begin
     id 20
     name lwrist
     direction 1 -4.48985e-011 1.73247e-026   
     length 1.6998   
     axis -9.60847e-015 90 90   XYZ
    dof ry
    limits (-180.0 0.0)
 end
  begin
     id 21 
     name lhand
     direction 1 -4.48798e-011 3.46119e-026   
     length 0.519693   
     axis -2.21073e-014 90 90   XYZ
    dof rx rz
    limits (-90.0 90.0)
           (-45.0 45.0)
  end
  begin
     id 22 
     name lfingers
     direction 1 -4.48938e-011 6.92797e-026   
     length 0.41899   
     axis -4.42155e-014 90 90   XYZ
    dof rx
    limits (0.0 90.0)
  end
  begin
     id 23
     name lthumb
     direction 0.707107 -6.34952e-011 0.707107   
     length 0.601588   
     axis -90 45 6.0103e-014   XYZ
    dof rx rz
    limits (-45.0 45.0)
           (-45.0 45.0)
  end
  begin
     id 24 
     name rclavicle
     direction -0.866736 0.456792 -0.200276   
     length 3.45032  
     axis 0 0 0   XYZ 
    dof ry rz
    limits (-10.0 20.0)
           (-20.0 0.0)
  end
  begin
     id 25 
     name rhumerus
     direction -1 -4.4897e-011 8.65094e-028  
     length 5.32214   
     axis 180 30 90   XYZ
    dof rx ry rz
    limits (-90.0 60.0)
           (-90.0 90.0)
           (-90.0 90.0)
  end
  begin
     id 26 
     name rradius
     direction -1 -4.48987e-011 1.08427e-026   
     length 3.51208   
     axis 180 30 90   XYZ
    dof rx
    limits (-10.0 170.0)
  end
  begin
     id 27 
     name rwrist
     direction -1 -4.48961e-011 1.73222e-026   
     length 1.75604   
     axis -9.60847e-015 -90 -90   XYZ
    dof ry
    limits (-180.0 0.0)
  end
  begin
     id 28
     name rhand
     direction -1 -4.48895e-011 3.46314e-026   
     length 0.586681   
     axis -2.21073e-014 -90 -90   XYZ
    dof rx rz
    limits (-90.0 90.0)
           (-45.0 45.0)
  end
  begin
     id 29
     name rfingers
     direction -1 -4.48968e-011 6.92916e-026   
     length 0.472997   
     axis -4.42155e-014 -90 -90   XYZ
    dof rx
    limits (0.0 90.0)
  end
  begin
     id 30
     name rthumb
     direction -0.707107 -6.34848e-011 0.707107   
     length 0.679133   
     axis -90 -45 -6.0103e-014   XYZ
    dof rx rz
    limits (-45.0 45.0)
           (-45.0 45.0)
  end
:hierarchy
  begin
    root lhipjoint rhipjoint lowerback
    lhipjoint lfemur
    lfemur ltibia
    ltibia lfoot
    lfoot ltoes
    rhipjoint rfemur
    rfemur rtibia
    rtibia rfoot
    rfoot rtoes
    lowerback upperback
    upperback thorax
    thorax lowerneck lclavicle rclavicle
    lowerneck upperneck
    upperneck head
    lclavicle lhumerus
    lhumerus lradius
    lradius lwrist
    lwrist lhand lthumb
    lhand lfingers
    rclavicle rhumerus
    rhumerus rradius
    rradius rwrist
    rwrist rhand rthumb
    rhand rfingers
  end

#!OML:ASF H:\Dans Jumps\Project 1\Capture day 1\Session 1\subject.ASF
:FULLY-SPECIFIED
:DEGREES
72
root 0.502622 17.6108 -13.5979 7.38555 -0.290849 -0.978349
lowerback -3.72006 -0.71815 -0.411637
upperback 1.33817 -0.994693 1.72047
thorax 3.50211 -0.524387 1.93689
lowerneck -13.3821 0.484269 -1.74861
upperneck 13.0469 1.00306 0.00975476
head 6.14853 0.398745 0.379705
rclavicle 4.82053e-015 -1.19271e-015
rhumerus -28.0013 -19.8689 -77.5993
rradius 22.3199
rwrist 35.146
rhand -19.3474 -26.8547
rfingers 7.12502
rthumb 6.96982 -56.72
lclavicle 4.82053e-015 -1.19271e-015
lhumerus -23.4601 5.41909 86.6841
lradius 14.6868
lwrist -0.746411
lhand -25.723 -4.94795
lfingers 7.12502
lthumb 0.813241 25.0302
rfemur -11.1805 -3.73004 20.3788
rtibia 19.3486
rfoot -14.513 -3.72287
rtoes 14.0825
lfemur -10.0755 8.58653 -19.6073
ltibia 16.2828
lfoot -11.6602 3.9602
ltoes 2.11486
73
root 0.502906 17.6106 -13.6009 7.37087 -0.299132 -0.980718
lowerback -3.70847 -0.714678 -0.406507
upperback 1.33676 -0.990148 1.71774
thorax 3.49378 -0.521927 1.93162
lowerneck -13.3712 0.47859 -1.75335
upperneck 13.0531 0.994848 0.0179775
head 6.14864 0.395162 0.382327
rclavicle -1.27222e-014 6.75868e-015
rhumerus -28.0123 -19.8508 -77.5949
rradius 22.3194
rwrist 35.1464
rhand -19.3361 -26.864
rfingers 7.12502
rthumb 6.98076 -56.7289
lclavicle -1.27222e-014 6.75868e-015
lhumerus -23.4674 5.46666 86.6536
lradius 14.674
lwrist -0.770679
lhand -25.746 -4.93504
lfingers 7.12502
lthumb 0.791031 25.0432
rfemur -11.1853 -3.72957 20.379
rtibia 19.3656
rfoot -14.5152 -3.7114
rtoes 14.0912
lfemur -10.0647 8.58067 -19.6036
ltibia 16.2755
lfoot -11.6574 3.95628
ltoes 2.15083
74
root 0.503272 17.6102 -13.6039 7.35743 -0.306247 -0.980507
lowerback -3.69965 -0.711848 -0.40325
upperback 1.33663 -0.986363 1.71402
thorax 3.48839 -0.519898 1.92629
lowerneck -13.3618 0.472952 -1.75864
upperneck 13.0568 0.98676 0.0265162
head 6.1482 0.391655 0.385149
rclavicle -1.05356e-014 3.97569e-016
rhumerus -28.017 -19.8368 -77.5909
rradius 22.3168
rwrist 35.1497
rhand -19.3264 -26.8805
rfingers 7.12502
rthumb 6.99011 -56.7451
lclavicle -1.05356e-014 3.97569e-016
lhumerus -23.4727 5.51751 86.6215
lradius 14.6599
lwrist -0.79783
lhand -25.767 -4.91097
lfingers 7.12502
lthumb 0.77075 25.0674
rfemur -11.1922 -3.73302 20.3758
rtibia 19.3839
rfoot -14.5179 -3.6953
rtoes 14.1067
lfemur -10.0566 8.57991 -19.6035
ltibia 16.2692
lfoot -11.6542 3.9449
ltoes 2.17681
75
root 0.50373 17.6099 -13.6068 7.34401 -0.312941 -0.981252
lowerback -3.69303 -0.709114 -0.398748
upperback 1.33727 -0.982799 1.71057
thorax 3.48504 -0.51797 1.92051
lowerneck -13.3481 0.467771 -1.7646
upperneck 13.0548 0.979445 0.0340662
head 6.14524 0.388458 0.387798
rclavicle 5.01931e-015 -2.8625e-014
rhumerus -28.0191 -19.8187 -77.5887
rradius 22.3174
rwrist 35.1465
rhand -19.3171 -26.9034
rfingers 7.12502
rthumb 6.9991 -56.7676
lclavicle 5.01931e-015 -2.8625e-014
lhumerus -23.4796 5.57249 86.588
lradius 14.6449
lwrist -0.830795
lhand -25.7816 -4.88671
lfingers 7.12502
lthumb 0.756716 25.0917
rfemur -11.1989 -3.73771 20.373
rtibia 19.4025
rfoot -14.5209 -3.6776
rtoes 14.123
lfemur -10.0497 8.58726 -19.6027
ltibia 16.2639
lfoot -11.6505 3.92447
ltoes 2.19503
76
root 0.504303 17.6096 -13.6097 7.33132 -0.3191 -0.979395
lowerback -3.6893 -0.70735 -0.396439
upperback 1.33963 -0.980444 1.70674
thorax 3.48517 -0.516715 1.91545
lowerneck -13.3414 0.463055 -1.7737
upperneck 13.0531 0.973299 0.0431389
head 6.14354 0.385782 0.391579
rclavicle -1.97791e-014 1.47101e-014
rhumerus -28.0172 -19.7903 -77.5907
rradius 22.3224
rwrist 35.133
rhand -19.3147 -26.9211
rfingers 7.12502
rthumb 7.00137 -56.7853
lclavicle -1.97791e-014 1.47101e-014
lhumerus -23.4835 5.63218 86.5535
lradius 14.6267
lwrist -0.871267
lhand -25.7887 -4.86725
lfingers 7.12502
lthumb 0.749839 25.1112
rfemur -11.2056 -3.74483 20.3669
rtibia 19.4201
rfoot -14.5231 -3.65777
rtoes 14.1432
lfemur -10.044 8.59996 -19.6052
ltibia 16.26
lfoot -11.6476 3.89763
ltoes 2.20861
77
root 0.50494 17.6093 -13.6124 7.3199 -0.324007 -0.978289
lowerback -3.6862 -0.706095 -0.393402
upperback 1.34099 -0.978816 1.7035
thorax 3.48465 -0.515803 1.91053
lowerneck -13.3367 0.459106 -1.78202
upperneck 13.0515 0.968422 0.050009
head 6.14219 0.383578 0.394654
rclavicle 1.08835e-014 9.93923e-015
rhumerus -28.0145 -19.7567 -77.593
rradius 22.3287
rwrist 35.1168
rhand -19.3157 -26.9301
rfingers 7.12502
rthumb 7.00042 -56.7943
lclavicle 1.08835e-014 9.93923e-015
lhumerus -23.4912 5.69049 86.5194
lradius 14.6087
lwrist -0.915597
lhand -25.7896 -4.86543
lfingers 7.12502
lthumb 0.748944 25.113
rfemur -11.2124 -3.75106 20.3616
rtibia 19.4359
rfoot -14.5229 -3.64066
rtoes 14.1625
lfemur -10.0409 8.61427 -19.6072
ltibia 16.2578
lfoot -11.6454 3.86831
ltoes 2.21524
78
root 0.505644 17.6091 -13.6151 7.30877 -0.328214 -0.978328
lowerback -3.68314 -0.705074 -0.388936
upperback 1.34205 -0.977579 1.7006
thorax 3.48384 -0.515055 1.90514
lowerneck -13.3398 0.455784 -1.78879
upperneck 13.0557 0.964641 0.054665
head 6.14404 0.381748 0.396923
rclavicle 1.14798e-014 -2.26615e-014
rhumerus -28.0127 -19.7155 -77.5968
rradius 22.3382
rwrist 35.0937
rhand -19.3191 -26.93
rfingers 7.12502
rthumb 6.99714 -56.7943
lclavicle 1.14798e-014 -2.26615e-014
lhumerus -23.498 5.74941 86.485
lradius 14.5873
lwrist -0.966949
lhand -25.7865 -4.8647
lfingers 7.12502
lthumb 0.751912 25.1137
rfemur -11.2183 -3.75472 20.3576
rtibia 19.45
rfoot -14.5216 -3.6276
rtoes 14.1782
lfemur -10.038 8.62745 -19.6079
ltibia 16.257
lfoot -11.6443 3.83986
ltoes 2.22737
79
root 0.506392 17.6089 -13.6178 7.29829 -0.330506 -0.977957
lowerback -3.67901 -0.704434 -0.384552
upperback 1.34257 -0.976825 1.69745
thorax 3.48188 -0.514538 1.89951
lowerneck -13.3492 0.451676 -1.79411
upperneck 13.0643 0.960111 0.0565395
head 6.14839 0.379361 0.398042
rclavicle -5.31749e-015 1.19271e-015
rhumerus -28.013 -19.666 -77.6027
rradius 22.3539
rwrist 35.0639
rhand -19.3229 -26.9246
rfingers 7.12502
rthumb 6.99346 -56.789
lclavicle -5.31749e-015 1.19271e-015
lhumerus -23.5042 5.80578 86.451
lradius 14.565
lwrist -1.02551
lhand -25.7777 -4.86845
lfingers 7.12502
lthumb 0.760447 25.1099
rfemur -11.2235 -3.75739 20.3535
rtibia 19.4619
rfoot -14.5178 -3.61971
rtoes 14.1857
lfemur -10.0368 8.63494 -19.6093
ltibia 16.2583
lfoot -11.644 3.81577
ltoes 2.24782
80
root 0.507162 17.6087 -13.6206 7.28772 -0.329506 -0.978258
lowerback -3.67593 -0.705095 -0.379406
upperback 1.34501 -0.977883 1.69447
thorax 3.48255 -0.514932 1.89349
lowerneck -13.3625 0.447162 -1.7975
upperneck 13.0738 0.955283 0.0549155
head 6.15373 0.37663 0.397723
rclavicle 4.62174e-015 5.96354e-015
rhumerus -28.0072 -19.62 -77.6092
rradius 22.366
rwrist 35.0395
rhand -19.3277 -26.9142
rfingers 7.12502
rthumb 6.98885 -56.7788
lclavicle 4.62174e-015 5.96354e-015
lhumerus -23.5055 5.85156 86.4199
lradius 14.5418
lwrist -1.07995
lhand -25.7657 -4.85991
lfingers 7.12502
lthumb 0.772049 25.1184
rfemur -11.2272 -3.75741 20.3506
rtibia 19.472
rfoot -14.5132 -3.61893
rtoes 14.1905
lfemur -10.0362 8.63811 -19.61
ltibia 16.2604
lfoot -11.6438 3.7949
ltoes 2.26769
81
root 0.507957 17.6086 -13.6233 7.27685 -0.32669 -0.980628
lowerback -3.67181 -0.706111 -0.373311
upperback 1.34787 -0.979508 1.69287
thorax 3.48311 -0.515606 1.88835
lowerneck -13.3755 0.441763 -1.80314
upperneck 13.0843 0.949716 0.0532206
head 6.1593 0.373415 0.397682
rclavicle -8.59744e-015 1.03368e-014
rhumerus -27.9987 -19.5741 -77.6154
rradius 22.3775
rwrist 35.0144
rhand -19.329 -26.9088
rfingers 7.12502
rthumb 6.98756 -56.7735
lclavicle -8.59744e-015 1.03368e-014
lhumerus -23.5041 5.88556 86.3938
lradius 14.5179
lwrist -1.13059
lhand -25.7507 -4.84694
lfingers 7.12502
lthumb 0.786502 25.1314
rfemur -11.2295 -3.75374 20.3502
rtibia 19.4804
rfoot -14.5069 -3.62455
rtoes 14.1943
lfemur -10.0361 8.63812 -19.6086
ltibia 16.2633
lfoot -11.6438 3.77776
ltoes 2.29278
82
root 0.508848 17.6085 -13.6261 7.26555 -0.324549 -0.981057
lowerback -3.66709 -0.707428 -0.369179
upperback 1.35117 -0.981429 1.69097
thorax 3.48381 -0.51647 1.88397
lowerneck -13.387 0.435985 -1.80877
upperneck 13.0945 0.943874 0.0498056
head 6.16456 0.36993 0.397061
rclavicle 7.15625e-015 -2.78299e-015
rhumerus -27.9871 -19.5362 -77.6197
rradius 22.386
rwrist 34.9958
rhand -19.3287 -26.9087
rfingers 7.12502
rthumb 6.98782 -56.7734
lclavicle 7.15625e-015 -2.78299e-015
lhumerus -23.5021 5.90383 86.3728
lradius 14.4963
lwrist -1.16927
lhand -25.741 -4.8305
lfingers 7.12502
lthumb 0.795923 25.1478
rfemur -11.231 -3.74957 20.3472
rtibia 19.4876
rfoot -14.4998 -3.63087
rtoes 14.1959
lfemur -10.035 8.63318 -19.6101
ltibia 16.2661
lfoot -11.6436 3.7678
ltoes 2.32466
83
root 0.5098 17.6085 -13.629 7.25383 -0.32286 -0.983567
lowerback -3.66078 -0.70905 -0.364439
upperback 1.35461 -0.983849 1.69112
thorax 3.48381 -0.517592 1.88135
lowerneck -13.3978 0.430741 -1.8161
upperneck 13.1046 0.939324 0.0448153
head 6.16964 0.366859 0.396329
rclavicle -1.98785e-015 -1.82882e-014
rhumerus -27.9732 -19.5003 -77.6222
rradius 22.3947
rwrist 34.9777
rhand -19.3253 -26.9165
rfingers 7.12502
rthumb 6.99111 -56.7811
lclavicle -1.98785e-015 -1.82882e-014
lhumerus -23.4997 5.91462 86.357
lradius 14.4762
lwrist -1.19979
lhand -25.7289 -4.79648
lfingers 7.12502
lthumb 0.807573 25.1817
rfemur -11.232 -3.74308 20.3463
rtibia 19.4938
rfoot -14.4918 -3.63951
rtoes 14.1993
lfemur -10.0335 8.62565 -19.6096
ltibia 16.269
lfoot -11.6434 3.76259
ltoes 2.36463
84
root 0.51077 17.6085 -13.6319 7.24183 -0.323958 -0.984762
lowerback -3.65289 -0.710207 -0.362469
upperback 1.35829 -0.985514 1.69161
thorax 3.4832 -0.518402 1.8807
lowerneck -13.4111 0.426593 -1.82606
upperneck 13.1172 0.936547 0.0418638
head 6.17594 0.364654 0.396852
rclavicle 5.41688e-015 9.93923e-015
rhumerus -27.9586 -19.4668 -77.6237
rradius 22.4052
rwrist 34.9606
rhand -19.3213 -26.9247
rfingers 7.12502
rthumb 6.99504 -56.7892
lclavicle 5.41688e-015 9.93923e-015
lhumerus -23.4969 5.92358 86.3433
lradius 14.4588
lwrist -1.22527
lhand -25.7195 -4.75668
lfingers 7.12502
lthumb 0.816624 25.2215
rfemur -11.233 -3.73334 20.3438
rtibia 19.5001
rfoot -14.4842 -3.64911
rtoes 14.2027
lfemur -10.0312 8.6171 -19.6106
ltibia 16.2721
lfoot -11.6434 3.76102
ltoes 2.41952
